<svg width="24" height="24" viewBox="0 0 24 24" fill="none" xmlns="http://www.w3.org/2000/svg">
<path d="M21 1.5C21.3978 1.5 21.7794 1.65804 22.0607 1.93934C22.342 2.22064 22.5 2.60218 22.5 3V21C22.5 21.3978 22.342 21.7794 22.0607 22.0607C21.7794 22.342 21.3978 22.5 21 22.5H3C2.60218 22.5 2.22064 22.342 1.93934 22.0607C1.65804 21.7794 1.5 21.3978 1.5 21V3C1.5 2.60218 1.65804 2.22064 1.93934 1.93934C2.22064 1.65804 2.60218 1.5 3 1.5H21ZM3 0C2.20435 0 1.44129 0.316071 0.87868 0.87868C0.316071 1.44129 0 2.20435 0 3L0 21C0 21.7956 0.316071 22.5587 0.87868 23.1213C1.44129 23.6839 2.20435 24 3 24H21C21.7956 24 22.5587 23.6839 23.1213 23.1213C23.6839 22.5587 24 21.7956 24 21V3C24 2.20435 23.6839 1.44129 23.1213 0.87868C22.5587 0.316071 21.7956 0 21 0L3 0Z" fill="url(#paint0_linear_485_5544)"/>
<path d="M13.3949 9.882L9.95993 10.3125L9.83693 10.8825L10.5119 11.007C10.9529 11.112 11.0399 11.271 10.9439 11.7105L9.83693 16.9125C9.54593 18.258 9.99443 18.891 11.0489 18.891C11.8664 18.891 12.8159 18.513 13.2464 17.994L13.3784 17.37C13.0784 17.634 12.6404 17.739 12.3494 17.739C11.9369 17.739 11.7869 17.4495 11.8934 16.9395L13.3949 9.882ZM13.4999 6.75C13.4999 7.14782 13.3419 7.52936 13.0606 7.81066C12.7793 8.09196 12.3978 8.25 11.9999 8.25C11.6021 8.25 11.2206 8.09196 10.9393 7.81066C10.658 7.52936 10.4999 7.14782 10.4999 6.75C10.4999 6.35218 10.658 5.97064 10.9393 5.68934C11.2206 5.40804 11.6021 5.25 11.9999 5.25C12.3978 5.25 12.7793 5.40804 13.0606 5.68934C13.3419 5.97064 13.4999 6.35218 13.4999 6.75Z" fill="url(#paint1_linear_485_5544)"/>
<defs>
<linearGradient id="paint0_linear_485_5544" x1="0" y1="12.0005" x2="23.9897" y2="12.0005" gradientUnits="userSpaceOnUse">
<stop stop-color="#F15B5D"/>
<stop offset="0.54" stop-color="#E0228F"/>
<stop offset="1" stop-color="#9B278F"/>
</linearGradient>
<linearGradient id="paint1_linear_485_5544" x1="9.75" y1="12.0708" x2="13.4983" y2="12.0708" gradientUnits="userSpaceOnUse">
<stop stop-color="#F15B5D"/>
<stop offset="0.54" stop-color="#E0228F"/>
<stop offset="1" stop-color="#9B278F"/>
</linearGradient>
</defs>
</svg>
