<svg width="69" height="71" viewBox="0 0 69 71" fill="none" xmlns="http://www.w3.org/2000/svg">
<path fill-rule="evenodd" clip-rule="evenodd" d="M32.8409 1.38713C33.0008 1.05678 33.2507 0.77818 33.5617 0.583242C33.8727 0.388303 34.2323 0.284912 34.5994 0.284912C34.9664 0.284912 35.326 0.388303 35.6371 0.583242C35.9481 0.77818 36.1979 1.05678 36.3579 1.38713L68.4019 67.2611C68.5465 67.5586 68.6131 67.888 68.5957 68.2183C68.5782 68.5486 68.4771 68.869 68.302 69.1496C68.1268 69.4302 67.8833 69.6618 67.5943 69.8225C67.3052 69.9833 66.9801 70.0681 66.6493 70.0689H2.55335C2.22209 70.0691 1.89622 69.985 1.60636 69.8247C1.31651 69.6643 1.07219 69.4328 0.896357 69.1521C0.720526 68.8714 0.618959 68.5505 0.601199 68.2197C0.583439 67.889 0.65007 67.5591 0.794831 67.2611L32.8428 1.38713H32.8409ZM30.6916 27.083C30.6916 26.0465 31.1033 25.0526 31.8361 24.3197C32.569 23.5869 33.563 23.1751 34.5994 23.1751C35.6358 23.1751 36.6297 23.5869 37.3626 24.3197C38.0955 25.0526 38.5072 26.0465 38.5072 27.083V46.622C38.5072 47.6584 38.0955 48.6524 37.3626 49.3853C36.6297 50.1181 35.6358 50.5298 34.5994 50.5298C33.563 50.5298 32.569 50.1181 31.8361 49.3853C31.1033 48.6524 30.6916 47.6584 30.6916 46.622V27.083ZM34.5329 54.4376C33.5139 54.4376 32.5366 54.8425 31.816 55.563C31.0954 56.2836 30.6906 57.2609 30.6906 58.28C30.6906 59.2991 31.0954 60.2764 31.816 60.997C32.5366 61.7175 33.5139 62.1224 34.5329 62.1224H34.6658C35.6849 62.1224 36.6622 61.7175 37.3828 60.997C38.1033 60.2764 38.5082 59.2991 38.5082 58.28C38.5082 57.2609 38.1033 56.2836 37.3828 55.563C36.6622 54.8425 35.6849 54.4376 34.6658 54.4376H34.5349H34.5329Z" fill="#FF595A"/>
</svg>
